<?xml version="1.0" encoding="UTF-8"?>
<!DOCTYPE svg PUBLIC "-//W3C//DTD SVG 1.1//EN" "http://www.w3.org/Graphics/SVG/1.1/DTD/svg11.dtd">
<svg xmlns="http://www.w3.org/2000/svg" version="1.1" width="192px" height="192px" style="shape-rendering:geometricPrecision; text-rendering:geometricPrecision; image-rendering:optimizeQuality; fill-rule:evenodd; clip-rule:evenodd" xmlns:xlink="http://www.w3.org/1999/xlink">
<g><path style="opacity:0.999" fill="#219cee" d="M 10.5,-0.5 C 67.1667,-0.5 123.833,-0.5 180.5,-0.5C 184.5,2.83333 188.167,6.5 191.5,10.5C 191.5,67.1667 191.5,123.833 191.5,180.5C 188.167,184.5 184.5,188.167 180.5,191.5C 123.833,191.5 67.1667,191.5 10.5,191.5C 6.5,188.167 2.83333,184.5 -0.5,180.5C -0.5,123.833 -0.5,67.1667 -0.5,10.5C 2.83333,6.5 6.5,2.83333 10.5,-0.5 Z"/></g>
<g><path style="opacity:1" fill="#fbfdfe" d="M 82.5,33.5 C 93.5438,33.1811 104.544,33.6811 115.5,35C 120.122,36.427 124.455,38.427 128.5,41C 131.284,43.1122 133.284,45.7788 134.5,49C 134.355,49.772 134.022,50.4387 133.5,51C 125.404,51.6519 117.404,50.9852 109.5,49C 92.2992,45.3575 78.4659,50.5241 68,64.5C 55.1684,83.972 53.5017,104.305 63,125.5C 72.5693,136.483 84.4027,139.649 98.5,135C 113.157,131.012 123.491,122.012 129.5,108C 115.297,105.797 107.13,97.63 105,83.5C 103.003,72.3303 106.836,63.8303 116.5,58C 132.561,53.1124 143.061,58.6124 148,74.5C 148.499,79.8229 148.666,85.1563 148.5,90.5C 150.681,90.7163 152.347,89.883 153.5,88C 159.667,86.1667 161.833,88.3333 160,94.5C 157.134,100.6 152.467,104.6 146,106.5C 134.532,148.335 107.365,164.835 64.5,156C 46.1951,150.025 35.3617,137.525 32,118.5C 27.8851,77.356 44.7184,49.0226 82.5,33.5 Z"/></g>
<g><path style="opacity:1" fill="#2e9fee" d="M 127.5,70.5 C 129.993,70.3291 131.826,71.3291 133,73.5C 133.667,79.1667 133.667,84.8333 133,90.5C 126.318,84.98 124.485,78.3134 127.5,70.5 Z"/></g>
</svg>
